<svg width="1095" height="115" viewBox="0 0 1095 115" fill="none" xmlns="http://www.w3.org/2000/svg" role="img" aria-label="Endor Labs">
  <g>
    <path d="M649.481 0.166534H636.459V111.676H722.408V99.8044H649.481V0.166534Z" fill="#FFFFFF"/>
    <path d="M797.803 0.166534L740.014 111.676H754.019L770.609 79.6134H838.318L854.908 111.676H869.547L811.624 0.166534H797.803ZM775.978 68.7093L803.972 14.1885H804.622L832.783 68.7093H775.961H775.978Z" fill="#FFFFFF"/>
    <path d="M965.65 55.0207V54.3705C978.672 50.1522 983.891 41.1821 983.891 29.1442C983.891 20.0408 980.956 12.3878 973.136 7.1692C962.716 0.666725 948.894 0.166534 926.902 0.166534H887.654V111.676H932.404C955.03 111.676 970.169 111.175 980.423 102.739C986.292 98.0204 989.86 91.3512 989.86 81.7309C989.876 65.1079 980.122 57.7884 965.634 55.0207H965.65ZM900.676 11.0874H931.454C955.063 11.0874 970.836 12.7046 970.836 30.6114C970.836 46.901 958.464 50.8024 931.454 50.8024H900.676V11.0707V11.0874ZM937.473 100.771H900.692V61.5232H937.473C960.098 61.5232 976.688 62.9737 976.688 81.0473C976.688 97.5202 964.983 100.755 937.473 100.755V100.771Z" fill="#FFFFFF"/>
    <path d="M1057.89 49.8023C1048.33 48.235 1040.2 46.8178 1032.51 44.4669C1023.26 41.6492 1020.61 36.6306 1020.61 28.6442C1020.61 21.6082 1022.96 15.9394 1032.51 12.9883C1038.15 11.421 1045.35 10.8041 1053.18 10.8041C1063.04 10.8041 1075.11 11.5711 1087.65 12.8382V1.56726C1075.28 0.633574 1064.16 0 1053.33 0C1044.25 0 1032.66 0.766958 1024.21 4.70179C1011.99 10.1872 1008.7 20.3577 1008.7 30.0781C1008.7 49.3521 1020.76 55.6211 1043.78 59.5393C1054.27 61.4233 1061.32 62.5238 1070.09 65.0247C1079.48 68.0092 1082.33 73.3279 1082.33 81.481C1082.33 88.8504 1079.98 95.2529 1070.26 98.0706C1064.29 99.7879 1056.79 100.422 1047.53 100.422C1036.58 100.422 1022.94 99.6545 1008.85 98.3874V110.142C1022.96 111.076 1035.49 111.709 1047.87 111.709C1058.19 111.709 1069.64 110.942 1078.26 106.857C1090.95 101.055 1094.38 90.5678 1094.38 80.5473C1094.38 60.3229 1081.71 53.587 1057.89 49.8189V49.8023Z" fill="#FFFFFF"/>
    <path d="M41.3825 68.9929H78.0298V41.4991H41.3825V27.8272H97.5706V0H8.55341V69.0096H41.3825V68.9929Z" fill="#FFFFFF"/>
    <path d="M97.5857 84.1984H41.4811V112.026H97.5857V84.1984Z" fill="#FFFFFF"/>
    <path d="M151.959 54.8042C151.959 54.8042 154.376 59.8227 156.977 63.2741L192.591 112.026H221.118V0.016673H188.272V58.1054C188.272 58.1054 185.855 53.0868 183.254 49.6355L147.624 0H119.096V112.026H151.942V54.8042H151.959Z" fill="#FFFFFF"/>
    <path d="M420.211 0C385.514 0 362.322 24.8594 362.322 55.7212C362.322 86.5829 385.497 111.776 420.211 111.776C454.924 111.776 478.266 86.9164 478.266 55.7212C478.266 24.526 454.907 0 420.211 0ZM420.211 83.0983C405.688 83.0983 395.351 71.7439 395.351 55.7379C395.351 39.7318 406.539 28.7109 420.211 28.7109C434.899 28.7109 445.237 40.0652 445.237 55.7379C445.237 71.7606 434.883 83.0983 420.211 83.0983Z" fill="#FFFFFF"/>
    <path d="M574.119 78.6635C585.874 70.5437 591.743 57.222 591.743 44.2671C591.743 19.8911 574.119 0.0169067 539.706 0.0169067H490.271V27.9442H523.133V27.8442H540.256C550.11 27.8442 557.029 35.1136 557.029 44.2671C557.029 53.4205 550.277 60.69 540.09 60.69H536.755V60.79H490.304V112.026H523.15V88.5005H536.622C539.389 88.5005 541.29 88.3338 544.741 87.9837L557.53 112.009H595.044L574.119 78.6635Z" fill="#FFFFFF"/>
    <path d="M32.9292 98.1206C32.9292 89.0171 25.5597 81.6476 16.4563 81.6476C7.35279 81.6476 0 89.0171 0 98.1206C0 107.224 7.36947 114.594 16.4563 114.594H16.4729C25.5764 114.594 32.9459 107.207 32.9459 98.1206H32.9292Z" fill="#26D07C"/>
    <path d="M289.293 0H242.608V69.2096H275.454V27.8272H288.076C304.849 27.8272 315.553 39.9318 315.553 56.0046C315.553 72.0774 304.832 84.182 288.076 84.182H242.592V112.009H289.276C326.79 112.009 350.299 86.5996 350.299 55.988C350.299 25.3763 326.807 0 289.293 0Z" fill="#FFFFFF"/>
  </g>
</svg>
